
<svg xmlns="http://www.w3.org/2000/svg" viewBox="-10 -10 347 330">
<style type="text/css"><![CDATA[
.branch {
	fill: none;
	stroke-width: 10;
	stroke-linecap: round;
}
.commit {
	fill: #fff;
	stroke-width: 5;
}
.label-tag {
	fill: #333;
}
.label-rect {
	stroke: none;
}
.label-text {
	font-family: Inconsolata, Consolas, monospace;
	font-size: 14px;
	fill: #fff;
	stroke: none;
}
.branch-master {stroke: #002b36; fill: #002b36}
.branch-stage {stroke: #268bd2; fill: #268bd2}
.branch-t2-new-feat {stroke: #2aa198; fill: #2aa198}
]]></style>
<g class="merge">
	<g class="branch-stage">
		<path class="branch" d="M0,50 C50,50 50,50 50,100" />
	</g>
	<g class="branch-master">
		<path class="branch" d="M0,0 C0,0 0,0 0,50" />
	</g>
</g>
<g class="branch-stage">
	<path class="branch" d="M50,100 L50,300" />
	<circle class="commit" cx="50" cy="100" r="7.5" />
	<circle class="commit" cx="50" cy="150" r="7.5" />
	<circle class="commit" cx="50" cy="200" r="7.5" />
	<g class="label-branch" transform="translate(100,300)">
		<rect x="0" y="-14" width="45" height="24" rx="3" class="label-rect" />
		<text x="5" y="2" textLength="35" class="label-text">stage</text>
	</g>
</g>
<g class="branch-t2-new-feat">
	<circle class="commit" cx="50" cy="200" r="7.5" />
	<circle class="commit" cx="50" cy="250" r="7.5" />
	<circle class="commit" cx="50" cy="300" r="7.5" />
	<g class="label-branch" transform="translate(150,300)">
		<rect x="0" y="-14" width="87" height="24" rx="3" class="label-rect" />
		<text x="5" y="2" textLength="77" class="label-text">t2-new-feat</text>
	</g>
</g>
<g class="branch-master">
	<path class="branch" d="M0,50 L0,50" />
	<circle class="commit" cx="0" cy="50" r="7.5" />
	<g class="label-branch" transform="translate(100,50)">
		<rect x="0" y="-14" width="52" height="24" rx="3" class="label-rect" />
		<text x="5" y="2" textLength="42" class="label-text">master</text>
	</g>
</g>
</svg>
